<?xml version="1.0" encoding="utf-8"?>
<!-- Generator: Adobe Illustrator 25.0.0, SVG Export Plug-In . SVG Version: 6.00 Build 0)  -->
<svg version="1.1" id="Layer_1" xmlns="http://www.w3.org/2000/svg" xmlns:xlink="http://www.w3.org/1999/xlink" x="0px" y="0px"
	 viewBox="0 0 210 200" style="enable-background:new 0 0 210 200;" xml:space="preserve">
<style type="text/css">
	.st0{opacity:0.34;fill:#FFFFFF;stroke:#D8D8D8;stroke-width:11;stroke-linejoin:round;stroke-miterlimit:10;}
	.st1{opacity:0.34;fill:#EFEFEF;stroke:#D8D8D8;stroke-width:11;stroke-linejoin:round;stroke-miterlimit:10;}
	.st2{opacity:0.34;fill:#F7F7F7;stroke:#D8D8D8;stroke-width:11;stroke-linejoin:round;stroke-miterlimit:10;}
	.st3{opacity:0.34;}
	.st4{fill:none;stroke:#D8D8D8;stroke-width:11;stroke-linecap:round;stroke-linejoin:round;}
	.st5{fill:none;stroke:#D8D8D8;stroke-width:11;stroke-linecap:round;stroke-linejoin:round;stroke-dasharray:6.0481,24.1923;}
	.st6{fill:url(#SVGID_1_);}
	.st7{fill:url(#SVGID_2_);}
	.st8{opacity:0.34;fill:none;stroke:#D8D8D8;stroke-width:11;stroke-linejoin:round;stroke-miterlimit:10;}
</style>
<rect x="5.5" y="45.5" class="st0" width="149" height="149"/>
<polygon class="st1" points="204.5,154.5 154.5,194.5 154.5,45.5 204.5,5.5 "/>
<polygon class="st2" points="65.5,5.5 204.5,5.5 154.5,45.5 5.5,45.5 "/>
<g class="st3">
	<g>
		<line class="st4" x1="5.5" y1="194.5" x2="7.96" y2="192.78"/>
		<polyline class="st5" points="27.76,178.88 62.5,154.5 189.4,154.5 		"/>
		<line class="st4" x1="201.5" y1="154.5" x2="204.5" y2="154.5"/>
	</g>
</g>
<g>
	
		<radialGradient id="SVGID_1_" cx="98.5" cy="175.2238" r="44.7981" gradientTransform="matrix(1 0 0 0.2713 0 127.6781)" gradientUnits="userSpaceOnUse">
		<stop  offset="0" style="stop-color:#000000;stop-opacity:0.2"/>
		<stop  offset="1" style="stop-color:#000000;stop-opacity:0"/>
	</radialGradient>
	<ellipse class="st6" cx="98.5" cy="175" rx="45.5" ry="12"/>
	<radialGradient id="SVGID_2_" cx="103.3425" cy="138.4082" r="42.7335" gradientUnits="userSpaceOnUse">
		<stop  offset="0" style="stop-color:#CD2100"/>
		<stop  offset="1" style="stop-color:#E0350B"/>
	</radialGradient>
	<path class="st7" d="M128,142.34c0,0-0.13-0.27-0.36-0.74c0.04-0.6,0.07-1.2,0.07-1.8c0-2.68-0.42-5.27-1.18-7.72l0.32,0
		c0,0-21.21-69.4-28.94-69.4c-8.31,0-28.94,69.93-28.94,69.93l0.16,0c-0.66,2.29-1.02,4.7-1.02,7.19c0,0.61,0.03,1.2,0.07,1.8
		c-0.23,0.48-0.36,0.74-0.36,0.74h0.42c1.38,14.1,14.14,25.16,29.67,25.16s28.29-11.05,29.67-25.16H128z"/>
</g>
<rect x="5.5" y="45.5" class="st8" width="149" height="149"/>
</svg>
